<svg width="250" height="60" viewBox="0 0 250 60" fill="none" xmlns="http://www.w3.org/2000/svg">
  <path d="M0 30C0 15.858 0 8.787 4.393 4.393C8.787 0 15.858 0 30 0C44.142 0 51.213 0 55.607 4.393C60 8.787 60 15.858 60 30C60 44.142 60 51.213 55.607 55.607C51.213 60 44.142 60 30 60C15.858 60 8.787 60 4.393 55.607C0 51.213 0 44.142 0 30Z" fill="white"/>
  <path d="M36 39C36.828 39 37.515 39.678 37.351 40.49C37.059 41.924 36.353 43.253 35.303 44.303C33.897 45.709 31.99 46.5 30 46.5C28.01 46.5 26.103 45.709 24.697 44.303C23.647 43.253 22.941 41.924 22.649 40.49C22.485 39.678 23.172 39 24 39H36Z" fill="#0d9488"/>
  <path d="M39.153 26.665C38.353 26.879 37.863 27.716 38.269 28.439C38.696 29.199 39.287 29.862 40.005 30.377C41.134 31.186 42.507 31.578 43.893 31.487C45.278 31.396 46.589 30.828 47.601 29.879C48.615 28.93 49.268 27.659 49.449 26.283C49.63 24.907 49.328 23.51 48.595 22.332C47.862 21.153 46.743 20.265 45.429 19.818C44.114 19.372 42.686 19.396 41.387 19.884C40.559 20.196 39.817 20.684 39.208 21.308C38.629 21.9 38.886 22.836 39.603 23.25L40.364 23.689C41.521 24.358 41.293 26.091 40.002 26.437L39.153 26.665Z" fill="#0d9488"/>
  <path d="M20.847 26.665C21.647 26.879 22.137 27.716 21.731 28.439C21.304 29.199 20.713 29.862 19.995 30.377C18.866 31.186 17.493 31.578 16.107 31.487C14.722 31.396 13.411 30.828 12.399 29.879C11.385 28.93 10.732 27.659 10.551 26.283C10.37 24.907 10.672 23.51 11.405 22.332C12.138 21.153 13.257 20.265 14.571 19.818C15.886 19.372 17.314 19.396 18.613 19.884C19.441 20.196 20.183 20.684 20.792 21.308C21.371 21.9 21.114 22.836 20.397 23.25L19.636 23.689C18.479 24.358 18.707 26.091 19.998 26.437L20.847 26.665Z" fill="#0d9488"/>
  <text x="76" y="39" font-family="-apple-system, BlinkMacSystemFont, 'Segoe UI', sans-serif" font-size="24" font-weight="600" fill="white">Calibrate<tspan fill="#99f6e4"> AI</tspan></text>
</svg>